<svg width="123" height="103" viewBox="0 0 123 103" fill="none" xmlns="http://www.w3.org/2000/svg">
<g filter="url(#filter0_d_270_10629)">
<rect x="26.0254" y="18" width="71" height="52" rx="9" stroke="white" stroke-opacity="0.2" stroke-width="6" shape-rendering="crispEdges"/>
<rect x="29.0254" y="21" width="65" height="46" rx="5.76117" fill="#0060AF"/>
<path fill-rule="evenodd" clip-rule="evenodd" d="M42.3953 48.408C42.3953 47.7906 42.4025 46.1405 42.3862 45.9372C42.4004 43.4817 40.4888 41.7495 39.2812 41.8846C38.4455 41.9523 37.7451 42.2705 37.3692 43.186C37.0205 44.0393 37.3323 45.1741 38.491 45.4404C39.7299 45.7264 40.4535 45.9644 40.9771 46.3001C41.6187 46.7111 42.1425 47.4963 42.1564 48.409" fill="white"/>
<path fill-rule="evenodd" clip-rule="evenodd" d="M41.8768 48.409C41.8809 47.6177 41.4079 46.9179 40.7898 46.5419C40.2416 46.2095 39.5055 45.9912 38.318 45.7099C37.951 45.6222 37.567 45.4274 37.4482 45.1791C37.1337 45.475 37.0766 46.1402 37.1319 46.5291C37.1962 46.9789 37.7592 47.7204 38.6068 47.7495C39.1244 47.7689 39.7788 47.6454 40.0926 47.5832C40.634 47.474 41.4906 47.7907 41.627 48.408" fill="white"/>
<path fill-rule="evenodd" clip-rule="evenodd" d="M42.8305 38.0576C41.3932 38.0576 40.1519 38.9428 40.1563 40.4746C40.1607 41.7626 41.2699 42.4522 41.6658 42.9447C42.2638 43.6869 42.5875 44.5654 42.621 45.9096C42.6473 46.9794 42.646 48.0358 42.6518 48.4102H42.969C42.9636 48.0185 42.9492 46.897 42.9655 45.8765C42.987 44.5319 43.3224 43.6869 43.9208 42.9447C44.3201 42.4522 45.4282 41.7626 45.4306 40.4746C45.4361 38.9428 44.1953 38.0576 42.7595 38.0576" fill="white"/>
<path fill-rule="evenodd" clip-rule="evenodd" d="M43.1971 48.408C43.1971 47.7906 43.1896 46.1405 43.2056 45.9372C43.1915 43.4817 45.1019 41.7495 46.3106 41.8846C47.1462 41.9523 47.8458 42.2705 48.2229 43.186C48.5711 44.0393 48.2577 45.1741 47.1005 45.4404C45.8607 45.7264 45.1381 45.9644 44.6131 46.3001C43.9723 46.7111 43.4852 47.4963 43.4702 48.409" fill="white"/>
<path fill-rule="evenodd" clip-rule="evenodd" d="M43.7149 48.409C43.7104 47.6177 44.1832 46.9179 44.7995 46.5419C45.3501 46.2095 46.0869 45.9912 47.2734 45.7099C47.6412 45.6222 48.0247 45.4274 48.1414 45.1791C48.4574 45.475 48.5145 46.1402 48.459 46.5291C48.3935 46.9789 47.8319 47.7204 46.9858 47.7495C46.4685 47.7689 45.8105 47.6454 45.498 47.5832C44.9587 47.474 44.0997 47.7907 43.9628 48.408" fill="white"/>
<path fill-rule="evenodd" clip-rule="evenodd" d="M44.1564 50.9637L43.9727 49.7104L44.4166 49.6475C44.5245 49.6339 44.6561 49.6514 44.7087 49.7146C44.7669 49.7806 44.7847 49.8352 44.7959 49.9218C44.8128 50.029 44.7796 50.1528 44.6504 50.2145V50.2183C44.7945 50.2183 44.8817 50.315 44.9071 50.4784C44.9107 50.513 44.9218 50.5963 44.9107 50.6658C44.8814 50.8313 44.7759 50.8846 44.5973 50.908L44.1564 50.9637ZM44.4419 50.7394C44.4946 50.7323 44.5479 50.7296 44.5897 50.7048C44.6536 50.6658 44.6478 50.5826 44.6388 50.5206C44.6167 50.3847 44.5787 50.3329 44.4243 50.3543L44.3271 50.3682L44.3887 50.7462L44.4419 50.7394ZM44.3491 50.1601C44.4078 50.1513 44.4874 50.1446 44.5205 50.0925C44.538 50.0577 44.5602 50.0301 44.5455 49.9527C44.5274 49.8611 44.495 49.8042 44.3701 49.8262L44.254 49.8437L44.2999 50.1648L44.3491 50.1601Z" fill="white"/>
<path fill-rule="evenodd" clip-rule="evenodd" d="M46.0824 50.21C46.0859 50.2333 46.0899 50.2593 46.0914 50.2826C46.1273 50.5111 46.0824 50.7004 45.8073 50.7525C45.4005 50.8255 45.3226 50.5897 45.2511 50.2593L45.213 50.0804C45.1569 49.7644 45.1328 49.5251 45.5294 49.4512C45.7529 49.4132 45.9006 49.4963 45.9621 49.7041C45.9716 49.7351 45.9836 49.7657 45.9881 49.7969L45.7448 49.8439C45.7167 49.7657 45.6795 49.6262 45.57 49.6379C45.3736 49.6601 45.4385 49.8883 45.4586 49.9838L45.5318 50.3269C45.5537 50.4306 45.5974 50.5964 45.7674 50.5644C45.9054 50.5386 45.8451 50.3378 45.8329 50.2554" fill="white"/>
<path fill-rule="evenodd" clip-rule="evenodd" d="M46.4727 50.5892L46.3887 49.2922L46.7154 49.1991L47.4006 50.3271L47.1433 50.399L46.9809 50.1124L46.6952 50.1925L46.7321 50.5184L46.4727 50.5892ZM46.6702 49.983L46.8767 49.9271L46.6025 49.4023L46.6702 49.983Z" fill="white"/>
<path fill-rule="evenodd" clip-rule="evenodd" d="M38.398 49.6085C38.5002 49.3029 38.5917 49.0776 38.9821 49.1776C39.191 49.2322 39.3205 49.3181 39.3143 49.5447C39.3133 49.5951 39.2955 49.6467 39.2838 49.6964L39.0409 49.6338C39.0727 49.5085 39.0929 49.4093 38.9279 49.3618C38.7371 49.3129 38.6906 49.5291 38.6643 49.6224L38.5654 49.9622C38.534 50.0632 38.4963 50.2301 38.6643 50.2732C38.803 50.308 38.887 50.1809 38.9373 49.9952L38.7674 49.953L38.8262 49.7564L39.2258 49.8764L39.0361 50.5317L38.8522 50.4851L38.8936 50.3465H38.8884C38.8036 50.4599 38.7004 50.4718 38.61 50.4555C38.2103 50.3546 38.252 50.1107 38.3474 49.7848" fill="white"/>
<path fill-rule="evenodd" clip-rule="evenodd" d="M39.8874 50.1621L39.767 50.6953L39.4961 50.6407L39.7848 49.3958L40.2467 49.4931C40.517 49.5477 40.5986 49.66 40.5603 49.8915C40.5385 50.0243 40.4684 50.1673 40.2972 50.1557L40.2954 50.1536C40.4401 50.2008 40.4524 50.2691 40.4271 50.3868C40.4162 50.4371 40.341 50.7412 40.3929 50.7904L40.3947 50.8278L40.1143 50.7594C40.1027 50.6752 40.1424 50.5235 40.1581 50.4394C40.1738 50.3652 40.1991 50.2604 40.1184 50.2212C40.0553 50.1896 40.0317 50.1912 39.9602 50.1759L39.8874 50.1621ZM39.9349 49.9693L40.1173 50.0153C40.2281 50.0304 40.2897 49.9767 40.3116 49.8516C40.3313 49.737 40.3057 49.6923 40.2063 49.6701L40.0107 49.6329L39.9349 49.9693Z" fill="white"/>
<path fill-rule="evenodd" clip-rule="evenodd" d="M41.6243 49.6737L41.8923 49.7027L41.7768 50.578C41.7208 50.8555 41.6059 50.9767 41.2791 50.9389C40.9466 50.8995 40.8676 50.7582 40.8877 50.4784L41.004 49.604L41.274 49.6328L41.1581 50.4877C41.1457 50.5805 41.1229 50.7181 41.2996 50.7348C41.4564 50.746 41.492 50.6488 41.5098 50.5282" fill="white"/>
<path fill-rule="evenodd" clip-rule="evenodd" d="M42.1875 50.9866L42.2682 49.7351L42.7829 49.7559C43.0263 49.7672 43.0898 49.9527 43.0824 50.1297C43.0752 50.2374 43.0393 50.3576 42.9388 50.4228C42.8564 50.4783 42.7504 50.4914 42.6523 50.4869L42.4846 50.4783L42.4511 51.0028L42.1875 50.9866ZM42.4913 50.2875L42.6277 50.2946C42.7385 50.2984 42.8119 50.2574 42.8214 50.1055C42.827 49.9597 42.7678 49.9349 42.6242 49.929L42.5163 49.9255L42.4913 50.2875Z" fill="white"/>
<path fill-rule="evenodd" clip-rule="evenodd" d="M78.4932 39.2671L76.4472 42.7356C75.675 42.1498 74.7321 41.7188 73.529 41.7188C70.6817 41.7188 69.5251 43.7009 69.5251 45.0972C69.5251 46.1338 70.2517 47.6629 72.7851 47.6629C73.8486 47.6629 75.3602 46.972 75.7953 46.6576L73.7719 50.6815C72.8074 50.8612 72.4904 50.9727 71.6741 50.9963C67.1396 51.1227 65.3074 48.521 65.3086 45.8627C65.3117 42.3483 68.657 38.0744 74.203 38.0744C74.5427 38.0744 74.9583 38.1843 75.3137 38.306L75.673 37.8768" fill="white"/>
<path fill-rule="evenodd" clip-rule="evenodd" d="M86.9359 37.9856L87.5153 50.5913H83.2036L83.2012 48.4295H80.261L79.2934 50.5913H74.6172L79.5061 41.5898L78.4037 41.5831L80.4981 37.9856H86.9359ZM83.1742 41.842L81.512 45.5086H83.2244L83.1742 41.842Z" fill="white"/>
<path fill-rule="evenodd" clip-rule="evenodd" d="M62.5866 37.9858C64.7218 37.997 65.9284 39.0795 65.9284 40.6431C65.9284 42.0847 64.6559 43.3607 63.259 44.0205C64.6972 44.5144 64.8216 45.7265 64.8216 46.5839C64.8216 48.6558 62.5959 50.5915 59.7026 50.5915H53.3926L55.8539 41.7154L54.8429 41.7099L56.9096 37.9858C56.9096 37.9858 60.8503 37.9746 62.5866 37.9858V37.9858ZM60.4925 43.0968C60.9342 43.0968 61.7141 42.9923 61.9091 42.194C62.1227 41.3272 61.3908 41.3039 61.0398 41.3039L59.7853 41.2989L59.3478 43.0968H60.4925ZM58.7186 45.3244L58.141 47.3961H59.6183C60.1993 47.3961 60.9913 47.1266 61.1853 46.4524C61.377 45.7764 60.8234 45.3244 60.2444 45.3244H58.7186Z" fill="white"/>
<path fill-rule="evenodd" clip-rule="evenodd" d="M42.8898 52.1405C40.7049 52.1405 38.4598 51.6379 36.2175 50.6439L36.1625 50.6187L36.1362 50.5663C35.1299 48.5825 34.5977 46.4129 34.5977 44.29C34.5977 42.1703 35.1081 40.0934 36.1149 38.1122L36.1428 38.0596L36.1988 38.0333C38.2731 37.1156 40.5043 36.6509 42.833 36.6509C45.002 36.6509 47.3188 37.1683 49.5313 38.1499L49.588 38.1735L49.6143 38.2272C50.6396 40.2475 51.1804 42.4167 51.1804 44.5045C51.1804 46.584 50.6612 48.6628 49.6345 50.6819L49.6075 50.7348L49.5504 50.7594C47.5077 51.6625 45.2045 52.1405 42.8898 52.1405M36.4252 50.372C38.6033 51.3291 40.7759 51.8123 42.8899 51.8123C45.1315 51.8123 47.3606 51.3547 49.3451 50.4872C50.3309 48.5307 50.8306 46.517 50.8306 44.5046C50.8306 42.4838 50.309 40.3821 49.3225 38.4211C47.1753 37.4783 44.9329 36.9784 42.8331 36.9784C40.5787 36.9784 38.4178 37.425 36.4063 38.3061C35.4407 40.2262 34.9493 42.2384 34.9493 44.2901C34.9493 46.3455 35.4599 48.4483 36.4252 50.372Z" fill="white"/>
</g>
<defs>
<filter id="filter0_d_270_10629" x="0.752829" y="0.151626" width="121.545" height="102.545" filterUnits="userSpaceOnUse" color-interpolation-filters="sRGB">
<feFlood flood-opacity="0" result="BackgroundImageFix"/>
<feColorMatrix in="SourceAlpha" type="matrix" values="0 0 0 0 0 0 0 0 0 0 0 0 0 0 0 0 0 0 127 0" result="hardAlpha"/>
<feOffset dy="7.42419"/>
<feGaussianBlur stdDeviation="11.1363"/>
<feComposite in2="hardAlpha" operator="out"/>
<feColorMatrix type="matrix" values="0 0 0 0 0.795833 0 0 0 0 0.295122 0 0 0 0 0.355207 0 0 0 0.3 0"/>
<feBlend mode="normal" in2="BackgroundImageFix" result="effect1_dropShadow_270_10629"/>
<feBlend mode="normal" in="SourceGraphic" in2="effect1_dropShadow_270_10629" result="shape"/>
</filter>
</defs>
</svg>
