<svg width="109" height="91" viewBox="0 0 109 91" fill="none" xmlns="http://www.w3.org/2000/svg">
<g filter="url(#filter0_d_270_10630)">
<rect x="19.0254" y="14" width="71" height="53" rx="9" stroke="white" stroke-opacity="0.2" stroke-width="6" shape-rendering="crispEdges"/>
<rect x="22.0254" y="17" width="65" height="47" rx="5.76117" fill="#108EE9"/>
<path fill-rule="evenodd" clip-rule="evenodd" d="M36.0556 32.98H35.839C34.0385 33.0184 32.2651 33.7476 30.9575 35.0022C29.4246 36.4389 28.5449 38.5324 28.5254 40.6424V40.8387C28.5622 42.9048 29.417 44.9501 30.9055 46.3714C32.2239 47.6611 34.0309 48.4123 35.865 48.443H36.0773C38.556 48.4145 40.9415 47.0096 42.2306 44.8744C43.3335 43.1044 43.6726 40.8782 43.1829 38.8482C42.7723 37.0969 41.7366 35.5012 40.3023 34.4353C39.0836 33.5141 37.5756 33.0085 36.0556 32.98ZM32.6883 39.2628C33.3882 39.4701 34.1346 39.344 34.816 39.1214C35.1915 38.996 35.5612 38.8528 35.9308 38.7095C36.5284 38.4779 37.1261 38.2463 37.7486 38.0905C38.5817 37.8931 39.5177 38.0521 40.185 38.6114C40.317 38.7398 40.3167 38.9253 40.3164 39.1011C40.3164 39.1446 40.3163 39.1875 40.3182 39.2288C40.3108 39.795 40.3134 40.3613 40.3161 40.9276V40.9276V40.9277V40.9277V40.9277C40.32 41.7622 40.3239 42.5966 40.2955 43.4302C40.1949 43.3869 40.0949 43.3409 39.9947 43.2949C39.5824 43.1053 39.1678 42.9148 38.7041 42.906C37.737 42.8521 36.8431 43.177 35.9475 43.5026C35.2187 43.7675 34.4888 44.0327 33.7175 44.0947C33.0177 44.1441 32.2864 43.9763 31.7187 43.5497C31.6025 43.3868 31.6083 43.1828 31.6139 42.9831C31.6162 42.9019 31.6185 42.8215 31.6126 42.7447C31.6234 42.238 31.6186 41.7304 31.6138 41.2226C31.6061 40.4041 31.5984 39.5854 31.6559 38.7704C31.7836 38.828 31.9065 38.8965 32.0293 38.965C32.241 39.0831 32.4525 39.2011 32.6883 39.2628ZM47.3762 36.8312C46.9931 36.8336 46.6099 36.8361 46.2269 36.8314C46.2264 38.1332 46.2264 39.4352 46.2264 40.7374C46.2264 42.0395 46.2264 43.3418 46.2259 44.6441C46.6527 44.6446 47.0793 44.6446 47.506 44.6446C47.9325 44.6446 48.359 44.6446 48.7858 44.6452C49.4065 44.6463 50.0338 44.5257 50.5884 44.235C52.0639 43.5025 52.9187 41.7412 52.6359 40.1083C52.4019 38.4084 50.9351 36.9641 49.231 36.849C48.613 36.8233 47.9946 36.8272 47.3762 36.8312ZM47.8397 42.3242V42.3237C47.8429 41.053 47.8461 39.7823 47.8349 38.5116C48.0004 38.5167 48.1669 38.5138 48.3335 38.5109H48.3335H48.3335H48.3335H48.3335C48.698 38.5044 49.063 38.498 49.4199 38.5763C50.3093 38.7825 50.995 39.6214 51.0578 40.5382C51.1521 41.4506 50.6289 42.3927 49.7969 42.7655C49.3459 42.9813 48.8502 42.9708 48.3597 42.9604C48.1844 42.9567 48.0098 42.953 47.8382 42.9597L47.8397 42.3242ZM55.5017 39.9909C55.5537 38.2965 57.0606 36.7744 58.755 36.8325C60.4157 36.8149 61.8739 38.3042 61.94 39.9657C61.9572 40.9202 61.9545 41.8751 61.9519 42.8299C61.9502 43.434 61.9485 44.038 61.9519 44.6418L61.9508 44.6418C61.4127 44.6429 60.8758 44.644 60.3388 44.6418C60.3361 44.3622 60.3364 44.0825 60.3366 43.803V43.803V43.8029V43.8029C60.3369 43.5234 60.3372 43.2441 60.3345 42.965C59.701 42.9683 59.0679 42.9677 58.435 42.9671H58.434H58.4339H58.4338C57.9912 42.9667 57.5487 42.9663 57.1061 42.9672C57.1045 43.1757 57.1053 43.3843 57.1061 43.593V43.593V43.5931V43.5931V43.5932C57.1074 43.9454 57.1087 44.2977 57.0985 44.6495C56.7411 44.6407 56.3841 44.6417 56.0273 44.6427H56.0272H56.0272H56.0271H56.0271H56.027H56.027C55.8486 44.6432 55.6703 44.6437 55.492 44.6429C55.4939 44.079 55.4925 43.515 55.491 42.951V42.951V42.951V42.9509C55.4884 41.9639 55.4859 40.977 55.5017 39.9909ZM57.5196 39.0718C57.08 39.5527 57.0928 40.2016 57.105 40.8235V40.8235V40.8235V40.8235C57.1082 40.9816 57.1113 41.1379 57.1069 41.2893C57.5371 41.2897 57.9676 41.2894 58.398 41.2892H58.3981H58.3981H58.3982C59.0439 41.2888 59.6897 41.2884 60.3352 41.2904C60.3312 41.1396 60.3346 40.984 60.3381 40.8267C60.3516 40.2189 60.3657 39.5859 59.9517 39.1058C59.3743 38.3381 58.1176 38.3206 57.5196 39.0718ZM64.776 40.0085C64.8237 38.517 65.9753 37.133 67.4367 36.8819C68.5244 36.6702 69.69 37.1034 70.3985 37.961C70.9467 38.5719 71.2262 39.3987 71.2262 40.219C71.2284 41.2023 71.2276 42.1851 71.2269 43.168V43.1681C71.2266 43.6597 71.2262 44.1513 71.2262 44.643C71.0435 44.6441 70.8606 44.6435 70.6778 44.6428H70.6777C70.325 44.6415 69.972 44.6402 69.6196 44.6518C69.608 43.8162 69.6098 42.9803 69.6117 42.1444C69.6131 41.5014 69.6146 40.8585 69.6099 40.2158C69.6185 39.6192 69.3033 39.0248 68.7876 38.7287C68.2524 38.4041 67.5277 38.4523 67.0369 38.8427C66.6123 39.1641 66.375 39.6992 66.3826 40.2322C66.3801 41.0726 66.3805 41.9126 66.3808 42.7526C66.3811 43.3826 66.3814 44.0127 66.3804 44.643C66.1839 44.6422 65.9873 44.6426 65.7907 44.6429C65.4467 44.6436 65.1027 44.6442 64.7587 44.6386C64.7702 43.8947 64.7681 43.1505 64.766 42.4062C64.7637 41.6069 64.7614 40.8075 64.776 40.0085ZM74.5647 38.346C75.1877 37.3634 76.3382 36.7295 77.5006 36.8414C78.8147 36.9236 79.9803 37.9369 80.3443 39.2036C80.4787 39.6312 80.4851 40.078 80.4915 40.5243V40.5244C80.4951 40.7796 80.4987 41.0348 80.5263 41.2862V44.6343C80.1136 44.6458 79.7008 44.6444 79.2881 44.6429C79.1505 44.6424 79.0129 44.642 78.8753 44.642C78.8746 44.4618 78.8749 44.2816 78.8753 44.1014C78.8759 43.7207 78.8766 43.34 78.8677 42.9597C78.2143 42.9697 77.5604 42.9683 76.9064 42.967H76.9064C76.4859 42.9661 76.0654 42.9652 75.6448 42.9674C75.6443 43.2465 75.6443 43.5256 75.6443 43.8048C75.6443 44.084 75.6443 44.3634 75.6437 44.6431H74.0296C74.029 43.9231 74.029 43.2034 74.029 42.4839C74.029 41.7643 74.029 41.0449 74.0285 40.3255C74.0209 39.6324 74.1845 38.9283 74.5647 38.346ZM76.0502 39.083C75.6191 39.5621 75.632 40.2059 75.6443 40.823V40.823C75.6474 40.9813 75.6505 41.1379 75.6461 41.2895C76.3641 41.2903 77.082 41.29 77.7997 41.2898L78.8755 41.2895C78.8707 41.1348 78.8741 40.9751 78.8775 40.8138C78.8903 40.2086 78.9036 39.5798 78.4888 39.1028C77.9059 38.334 76.6439 38.3241 76.0502 39.083Z" fill="white"/>
</g>
<defs>
<filter id="filter0_d_270_10630" x="0.561473" y="0.690722" width="107.928" height="89.9278" filterUnits="userSpaceOnUse" color-interpolation-filters="sRGB">
<feFlood flood-opacity="0" result="BackgroundImageFix"/>
<feColorMatrix in="SourceAlpha" type="matrix" values="0 0 0 0 0 0 0 0 0 0 0 0 0 0 0 0 0 0 127 0" result="hardAlpha"/>
<feOffset dy="5.15464"/>
<feGaussianBlur stdDeviation="7.73196"/>
<feComposite in2="hardAlpha" operator="out"/>
<feColorMatrix type="matrix" values="0 0 0 0 0.795833 0 0 0 0 0.295122 0 0 0 0 0.355207 0 0 0 0.3 0"/>
<feBlend mode="normal" in2="BackgroundImageFix" result="effect1_dropShadow_270_10630"/>
<feBlend mode="normal" in="SourceGraphic" in2="effect1_dropShadow_270_10630" result="shape"/>
</filter>
</defs>
</svg>
