<svg width="109" height="91" viewBox="0 0 109 91" fill="none" xmlns="http://www.w3.org/2000/svg">
<g filter="url(#filter0_d_270_10631)">
<rect x="19.0254" y="14" width="71" height="53" rx="9" stroke="white" stroke-opacity="0.2" stroke-width="6" shape-rendering="crispEdges"/>
<rect x="22.0254" y="17" width="65" height="47" rx="5.76117" fill="#262626"/>
<g opacity="0.01">
<rect x="35.9551" y="28.2802" width="36.9712" height="24.4119" fill="white"/>
</g>
<rect x="49.5664" y="32.5331" width="9.75282" height="15.9029" fill="#FF5F00"/>
<path fill-rule="evenodd" clip-rule="evenodd" d="M50.5709 40.4859C50.5685 37.3831 51.9952 34.4516 54.44 32.5359C50.2867 29.2772 44.3224 29.7519 40.7386 33.6262C37.1548 37.5006 37.1548 43.4739 40.7386 47.3483C44.3224 51.2227 50.2867 51.6974 54.44 48.4387C51.9944 46.5224 50.5676 43.5896 50.5709 40.4859Z" fill="#EB001B"/>
<path fill-rule="evenodd" clip-rule="evenodd" d="M69.8815 46.4968V47.1577H69.8134V46.4968H69.668V46.3601H70.0363V46.4968H69.8815ZM70.5953 46.3601V47.1577H70.5179V46.5538L70.3972 47.0722H70.3136L70.1929 46.5538V47.1577H70.1124V46.3601H70.2239L70.3539 46.9298L70.4839 46.3601H70.5953Z" fill="#F79E1B"/>
<path fill-rule="evenodd" clip-rule="evenodd" d="M70.8301 40.486C70.8301 44.358 68.6155 47.8901 65.127 49.5821C61.6384 51.2742 57.4884 50.8291 54.4395 48.436C56.8832 46.5187 58.31 43.5875 58.31 40.4846C58.31 37.3817 56.8832 34.4505 54.4395 32.5332C57.4884 30.14 61.6384 29.695 65.127 31.387C68.6155 33.0791 70.8301 36.6112 70.8301 40.4832V40.486Z" fill="#F79E1B"/>
</g>
<defs>
<filter id="filter0_d_270_10631" x="0.561473" y="0.690722" width="107.928" height="89.9278" filterUnits="userSpaceOnUse" color-interpolation-filters="sRGB">
<feFlood flood-opacity="0" result="BackgroundImageFix"/>
<feColorMatrix in="SourceAlpha" type="matrix" values="0 0 0 0 0 0 0 0 0 0 0 0 0 0 0 0 0 0 127 0" result="hardAlpha"/>
<feOffset dy="5.15464"/>
<feGaussianBlur stdDeviation="7.73196"/>
<feComposite in2="hardAlpha" operator="out"/>
<feColorMatrix type="matrix" values="0 0 0 0 0.795833 0 0 0 0 0.295122 0 0 0 0 0.355207 0 0 0 0.3 0"/>
<feBlend mode="normal" in2="BackgroundImageFix" result="effect1_dropShadow_270_10631"/>
<feBlend mode="normal" in="SourceGraphic" in2="effect1_dropShadow_270_10631" result="shape"/>
</filter>
</defs>
</svg>
