<svg width="27" height="27" viewBox="0 0 27 27" fill="none" xmlns="http://www.w3.org/2000/svg">
<path fill-rule="evenodd" clip-rule="evenodd" d="M18.1613 16.5234L23.9208 22.134C24.1232 22.3313 24.2369 22.5989 24.2368 22.8779C24.2367 23.1569 24.1228 23.4244 23.9202 23.6216C23.7177 23.8188 23.443 23.9296 23.1566 23.9295C22.8702 23.9294 22.5956 23.8184 22.3931 23.6211L16.6337 18.0105C14.912 19.3096 12.7469 19.9209 10.5789 19.7201C8.41092 19.5193 6.40288 18.5215 4.96328 16.9297C3.52369 15.3378 2.76068 13.2715 2.82947 11.1511C2.89827 9.03071 3.7937 7.01547 5.33361 5.51536C6.87351 4.01525 8.94222 3.14296 11.1189 3.07594C13.2956 3.00893 15.4167 3.75222 17.0508 5.15461C18.6848 6.557 19.7091 8.51314 19.9152 10.6251C20.1213 12.737 19.4938 14.8462 18.1602 16.5234H18.1613ZM11.3902 17.6716C13.0938 17.6716 14.7275 17.0123 15.9321 15.8389C17.1367 14.6654 17.8134 13.0739 17.8134 11.4144C17.8134 9.7549 17.1367 8.16336 15.9321 6.98992C14.7275 5.81647 13.0938 5.15723 11.3902 5.15723C9.68669 5.15723 8.05293 5.81647 6.84835 6.98992C5.64378 8.16336 4.96705 9.7549 4.96705 11.4144C4.96705 13.0739 5.64378 14.6654 6.84835 15.8389C8.05293 17.0123 9.68669 17.6716 11.3902 17.6716Z" fill="white"/>
</svg>
