<svg width="80" height="26" viewBox="0 0 80 26" fill="none" xmlns="http://www.w3.org/2000/svg">
<path d="M11.7883 19.7756C11.7883 18.7763 11.7991 16.1053 11.7745 15.7762C11.796 11.8016 8.90616 8.99797 7.08051 9.21653C5.81723 9.32616 4.7585 9.84128 4.19003 11.3231C3.66315 12.7042 4.1342 14.5411 5.88594 14.9722C7.75906 15.4351 8.85282 15.8203 9.64438 16.3636C10.6143 17.0288 11.4061 18.2998 11.4271 19.7771" fill="#0060AF"/>
<path d="M12.5354 25.8171C9.23268 25.8171 5.83838 25.0036 2.44859 23.3947L2.36541 23.3538L2.32563 23.2691C0.804445 20.0581 0 16.546 0 13.1099C0 9.67897 0.771444 6.31721 2.29376 3.11051L2.33558 3.0253L2.42034 2.9828C5.55606 1.49733 8.92935 0.744873 12.4496 0.744873C15.7288 0.744873 19.2309 1.58254 22.5757 3.17154L22.6616 3.20974L22.7012 3.29653C24.2515 6.56675 25.0691 10.0779 25.0691 13.4571C25.0691 16.8231 24.2841 20.1878 22.7319 23.456L22.691 23.5419L22.6047 23.5817C19.5169 25.0434 16.0346 25.8171 12.5354 25.8171ZM2.76232 22.9544C6.05537 24.5034 9.33959 25.2857 12.5354 25.2857C15.9241 25.2857 19.2942 24.545 22.2941 23.1409C23.7843 19.974 24.5397 16.7146 24.5397 13.4571C24.5397 10.1864 23.7513 6.78419 22.26 3.61027C19.0139 2.08433 15.6239 1.27514 12.4496 1.27514C9.04146 1.27514 5.77486 1.99799 2.73384 3.42402C1.27414 6.53216 0.531174 9.78904 0.531174 13.1099C0.531174 16.4371 1.30329 19.8406 2.76232 22.9544Z" fill="#0060AF"/>
<path d="M11.006 19.7772C11.0121 18.4962 10.2971 17.3636 9.36273 16.7549C8.53387 16.217 7.42112 15.8634 5.62599 15.4082C5.07108 15.2663 4.49063 14.951 4.31094 14.5491C3.83559 15.028 3.74925 16.1048 3.83288 16.7341C3.93008 17.4624 4.78108 18.6626 6.06245 18.7096C6.84497 18.741 7.83431 18.5412 8.30875 18.4404C9.1272 18.2637 10.4221 18.7763 10.6283 19.7756" fill="#0060AF"/>
<path d="M12.4488 3.02222C10.2762 3.02222 8.39949 4.45503 8.40627 6.93435C8.41305 9.01927 10.0897 10.1354 10.6881 10.9326C11.5922 12.134 12.0815 13.5559 12.1324 15.7317C12.1719 17.4633 12.1699 19.1732 12.1787 19.7792H12.6584C12.65 19.1452 12.6283 17.33 12.6532 15.6781C12.6857 13.5017 13.1927 12.134 14.0973 10.9326C14.7008 10.1354 16.3761 9.01927 16.3797 6.93435C16.3879 4.45503 14.5123 3.02222 12.3415 3.02222" fill="#0060AF"/>
<path d="M13.0007 19.7756C13.0007 18.7763 12.9894 16.1053 13.0136 15.7762C12.9923 11.8016 15.8803 8.99797 17.7076 9.21653C18.9708 9.32616 20.0284 9.84128 20.5985 11.3231C21.1249 12.7042 20.6512 14.5411 18.9015 14.9722C17.0274 15.4351 15.935 15.8203 15.1414 16.3636C14.1727 17.0288 13.4362 18.2998 13.4136 19.7771" fill="#0060AF"/>
<path d="M13.7833 19.7772C13.7765 18.4962 14.4912 17.3636 15.4229 16.7549C16.2551 16.217 17.3692 15.8634 19.1628 15.4082C19.7188 15.2663 20.2986 14.951 20.4751 14.5491C20.9527 15.028 21.0388 16.1048 20.9552 16.7341C20.856 17.4624 20.0072 18.6626 18.7281 18.7096C17.9458 18.741 16.9513 18.5412 16.4789 18.4404C15.6636 18.2637 14.3651 18.7763 14.158 19.7756" fill="#0060AF"/>
<path d="M14.4538 23.9124L14.1758 21.8838L14.8469 21.7821C15.0103 21.7597 15.2092 21.7881 15.2888 21.8906C15.3767 21.9975 15.4036 22.0858 15.4205 22.226C15.4458 22.3993 15.3957 22.5998 15.2004 22.6997V22.7058C15.4185 22.7058 15.5503 22.8625 15.5885 23.1269C15.5941 23.1827 15.6106 23.3177 15.5941 23.4302C15.5498 23.6981 15.39 23.7842 15.1204 23.822L14.4538 23.9124ZM14.8857 23.5492C14.9653 23.5378 15.046 23.5336 15.1091 23.4933C15.2056 23.4303 15.1968 23.2953 15.1834 23.1952C15.1497 22.975 15.0923 22.8914 14.8588 22.926L14.7122 22.9486L14.8051 23.5605L14.8857 23.5492ZM14.7452 22.6118C14.834 22.5974 14.9545 22.5867 15.0046 22.5024C15.0309 22.4461 15.0645 22.4014 15.0424 22.2762C15.015 22.1276 14.9658 22.0357 14.7772 22.0714L14.6016 22.0996L14.6708 22.6195" fill="#0060AF"/>
<path d="M17.3598 22.6923C17.365 22.73 17.3711 22.7721 17.3734 22.8098C17.4276 23.1798 17.3598 23.4861 16.9439 23.5704C16.3291 23.6888 16.2113 23.3068 16.1031 22.7721L16.0454 22.4827C15.9607 21.971 15.9243 21.5836 16.5237 21.4642C16.8616 21.4025 17.085 21.537 17.1779 21.8734C17.1923 21.9235 17.2104 21.9733 17.2172 22.0237L16.8494 22.0996C16.8069 21.9733 16.7507 21.7475 16.5852 21.7664C16.2882 21.8022 16.3863 22.1717 16.4168 22.3261L16.5273 22.8815C16.5606 23.0494 16.6266 23.3177 16.8836 23.2659C17.0922 23.2241 17.0013 22.8991 16.9828 22.766" fill="#0060AF"/>
<path d="M17.9515 23.3062L17.8242 21.2068L18.3183 21.056L19.3542 22.8819L18.9652 22.9983L18.7198 22.5343L18.2878 22.664L18.3436 23.1916L17.9515 23.3062ZM18.2516 22.325L18.5638 22.2346L18.1493 21.3851" fill="#0060AF"/>
<path d="M5.74772 21.719C5.90232 21.224 6.04088 20.8596 6.63082 21.0215C6.94658 21.1096 7.14233 21.2488 7.13306 21.6157C7.13153 21.6973 7.10458 21.7805 7.08695 21.8612L6.71965 21.7597C6.76779 21.5571 6.79831 21.3964 6.54877 21.3196C6.26035 21.2405 6.19006 21.5902 6.15028 21.7411L6.00087 22.2915C5.95341 22.4549 5.89645 22.725 6.15028 22.7947C6.36003 22.8512 6.48729 22.6453 6.56324 22.3446L6.30624 22.2766L6.39507 21.9581L6.99925 22.1525L6.71242 23.2133L6.4344 23.1378L6.49701 22.9136H6.48909C6.36116 23.0969 6.20497 23.1161 6.06822 23.0899C5.46404 22.9264 5.52711 22.5316 5.67131 22.004" fill="#0060AF"/>
<path d="M7.99582 22.615L7.81386 23.4779L7.4043 23.3893L7.84076 21.3743L8.53897 21.532C8.94763 21.6202 9.07105 21.8021 9.01318 22.1767C8.98018 22.3916 8.87418 22.6233 8.61537 22.6046L8.61266 22.601C8.83146 22.6777 8.84999 22.788 8.81179 22.9787C8.7953 23.0599 8.6816 23.5524 8.76003 23.632L8.76274 23.6923L8.33893 23.5818C8.3213 23.4453 8.3812 23.1998 8.40493 23.0639C8.42889 22.9437 8.46709 22.7742 8.34503 22.7104C8.24942 22.6596 8.21394 22.6621 8.1059 22.6372L7.99582 22.615ZM8.06566 22.3028L8.34142 22.3772C8.50891 22.4014 8.60203 22.3146 8.63503 22.1123C8.66487 21.9267 8.62622 21.8541 8.47591 21.8182L8.18026 21.7583" fill="#0060AF"/>
<path d="M10.6218 21.8246L11.0268 21.8716L10.8523 23.2881C10.7676 23.7372 10.594 23.9337 10.0999 23.8722C9.59718 23.8087 9.47783 23.5797 9.50835 23.1269L9.68397 21.7115L10.0922 21.7583L9.91701 23.1421C9.89848 23.2924 9.86367 23.515 10.1311 23.5419C10.3682 23.56 10.422 23.4029 10.4486 23.2076" fill="#0060AF"/>
<path d="M11.4746 23.9496L11.5964 21.924L12.3747 21.9576C12.7424 21.9757 12.8387 22.2761 12.8272 22.5627C12.8165 22.737 12.7621 22.9316 12.6102 23.0372C12.4856 23.1269 12.3256 23.1481 12.1771 23.1409L11.9235 23.1268L11.8729 23.9758L11.4746 23.9496ZM11.935 22.8179L12.1412 22.8294C12.3087 22.8355 12.4196 22.7693 12.4341 22.5234C12.4422 22.2872 12.353 22.2472 12.136 22.2377L11.9726 22.2321" fill="#0060AF"/>
<path d="M66.3615 4.9801L63.2685 10.594C62.1011 9.64605 60.6755 8.94829 58.8566 8.94829C54.5523 8.94829 52.804 12.1568 52.804 14.4169C52.804 16.0945 53.9025 18.5697 57.7324 18.5697C59.3399 18.5697 61.6253 17.4514 62.283 16.9426L59.2239 23.4556C57.7658 23.7465 57.2869 23.9269 56.0525 23.9651C49.1977 24.1697 46.4277 19.9587 46.4297 15.6558C46.4342 9.96746 51.4916 3.04957 59.8756 3.04957C60.3894 3.04957 61.0177 3.22723 61.555 3.4241L62.0979 2.72974" fill="#0060AF"/>
<path d="M79.1249 2.90576L80.0007 23.31H73.4825L73.4786 19.8106H69.0339L67.5711 23.31H60.502L67.8925 8.73962L66.226 8.72878L69.3924 2.90576H79.1249ZM73.4363 9.14784L70.9233 15.0827H73.5121" fill="#0060AF"/>
<path d="M42.3151 2.90574C45.5431 2.92382 47.3671 4.67601 47.3671 7.20711C47.3671 9.54043 45.4434 11.6059 43.3316 12.6739C45.5058 13.4731 45.6938 15.4351 45.6938 16.8231C45.6938 20.1765 42.3289 23.31 37.955 23.31H28.416L32.1369 8.94257L30.6085 8.93376L33.7329 2.90574C33.7329 2.90574 39.6902 2.88766 42.3151 2.90574ZM39.1482 11.1785C39.8159 11.1785 40.9949 11.0094 41.2896 9.71718C41.6126 8.31444 40.5062 8.27669 39.9755 8.27669L38.0791 8.26838L37.4177 11.1785L39.1482 11.1785ZM36.467 14.7841L35.5939 18.1375H37.8268C38.7054 18.1375 39.9027 17.7015 40.1961 16.6102C40.4858 15.5158 39.6488 14.7841 38.7734 14.7841" fill="#0060AF"/>
</svg>
