<svg width="80" height="24" viewBox="0 0 80 24" fill="none" xmlns="http://www.w3.org/2000/svg">
<path fill-rule="evenodd" clip-rule="evenodd" d="M0 8.72302L6.74901 17.2366L0 22.8291V8.72302Z" fill="#F15A23"/>
<path fill-rule="evenodd" clip-rule="evenodd" d="M2.7168 22.8292L7.79509 18.5809L11.3051 22.8292H2.7168Z" fill="#F15A23"/>
<path fill-rule="evenodd" clip-rule="evenodd" d="M0 4.16747L1.76124 6.39536L9.00279 15.4443L11.3493 13.5757C11.3493 13.5757 9.40129 11.2822 8.09326 8.72299C5.53591 3.71938 7.34645 0.604126 7.34645 0.604126H0V4.16747Z" fill="#F15A23"/>
<path fill-rule="evenodd" clip-rule="evenodd" d="M10.0352 16.8412L12.4249 14.8673C12.4249 14.8673 14.7074 17.8718 17.3539 18.5809C20.822 19.5102 22.3575 17.2367 22.3575 17.2367V22.8292H14.74L16.4577 21.3441C16.4577 21.3441 15.5615 21.9415 13.3698 20.4234C12.0762 19.5274 10.0352 16.8412 10.0352 16.8412Z" fill="#F15A23"/>
<path fill-rule="evenodd" clip-rule="evenodd" d="M10.2545 0.587891C10.2545 0.587891 9.49214 1.62644 10.0348 4.16753C10.6149 6.8836 12.9217 9.75826 12.9163 9.6939C12.9163 9.6939 13.0646 6.83949 14.7397 5.16443C18.3101 1.594 22.3571 3.71944 22.3571 3.71944V0.604186L10.2545 0.587891Z" fill="#F15A23"/>
<path fill-rule="evenodd" clip-rule="evenodd" d="M22.3568 7.48335C22.3568 7.48335 20.0988 5.54932 18.1358 5.54932C15.6246 5.54932 14.2539 7.7173 14.2539 9.28995C14.2539 11.5806 15.3534 12.8534 16.457 13.957C18.0429 15.5429 19.9723 17.2534 22.3568 15.8767C22.3568 13.2712 22.3568 7.48335 22.3568 7.48335Z" fill="#F15A23"/>
<path fill-rule="evenodd" clip-rule="evenodd" d="M48.0723 0.820923H53.4004C53.4004 0.820923 58.1205 7.9678 60.4402 10.9206C62.7599 13.8734 65.2568 17.2367 65.2568 17.2367C65.2568 17.2367 65.2568 7.48344 65.2568 2.42146C65.2568 1.7816 63.5768 0.820923 63.5768 0.820923H69.721C69.721 0.820923 67.7049 1.64921 67.7049 2.42146C67.7049 8.72308 67.7049 23.9741 67.7049 23.9741C67.7049 23.9741 65.7704 22.9014 63.5768 20.3524C61.112 17.4884 52.3444 5.92557 52.3444 5.92557C52.3444 5.92557 52.3444 16.8413 52.3444 20.902C52.3444 21.669 54.0245 22.8292 54.0245 22.8292H48.0723C48.0723 22.8292 49.7043 21.6597 49.7043 20.902C49.7043 15.4444 49.7043 7.48344 49.7043 2.42146C49.7043 1.74133 48.0723 0.820923 48.0723 0.820923Z" fill="#005E6A"/>
<path fill-rule="evenodd" clip-rule="evenodd" d="M73.1621 0.820923H80.0005C80.0005 0.820923 78.1642 1.6907 78.1642 2.42146C78.1642 7.48344 78.1642 15.8768 78.1642 20.902C78.1642 21.7006 80.0005 22.8292 80.0005 22.8292H73.1621C73.1621 22.8292 74.8717 21.6749 74.8717 20.902C74.8717 14.8673 74.8717 7.48344 74.8717 2.42146C74.8717 1.71889 73.1621 0.820923 73.1621 0.820923Z" fill="#005E6A"/>
<path fill-rule="evenodd" clip-rule="evenodd" d="M27.9531 0.820923C27.9531 0.820923 29.726 1.70491 29.726 2.42146C29.726 7.48344 29.726 14.8673 29.726 20.902C29.726 21.6876 27.9531 22.8292 27.9531 22.8292C27.9531 22.8292 36.8101 22.8292 38.084 22.8292C38.7172 22.8292 45.8088 21.6696 45.8088 16.2023C45.8088 10.7349 40.3001 10.223 40.3001 10.223C40.3001 10.223 43.656 9.29004 43.656 5.54941C43.656 1.51742 38.7172 0.820923 38.084 0.820923C36.7682 0.820923 27.9531 0.820923 27.9531 0.820923ZM33.3352 9.86066V2.98019C33.3352 2.98019 36.2717 2.98019 37.4508 2.98019C38.084 2.98019 40.3001 3.71948 40.3001 6.46231C40.3001 8.72308 38.084 9.86066 37.4508 9.86066C36.0153 9.86066 33.3352 9.86066 33.3352 9.86066ZM33.3352 11.6652C33.3352 11.6652 37.4508 11.6652 38.084 11.6652C38.7172 11.6652 42.4529 12.6356 42.4529 15.8768C42.4529 19.1813 38.7172 20.3524 38.084 20.3524C37.4508 20.3524 33.3352 20.3524 33.3352 20.3524V11.6652Z" fill="#005E6A"/>
</svg>
