<svg width="80" height="31" viewBox="0 0 80 31" fill="none" xmlns="http://www.w3.org/2000/svg">
<path d="M25.636 0.141396H4.61675C2.06806 0.141396 0 2.25938 0 4.87544V25.686C0 28.278 2.02716 30.3828 4.54757 30.4201L25.621 30.4207C28.1697 30.4207 30.2426 28.3021 30.2426 25.686L30.2528 4.87544C30.2528 2.25938 28.1841 0.141396 25.636 0.141396ZM7.11491 27.9947L5.96779 28.0085C4.57885 28.0085 3.4576 26.865 3.4576 25.4598L3.44918 25.2571V6.03941L3.4576 5.00357C3.51354 3.64411 4.54517 2.54572 5.89861 2.54572H8.22834C10.3439 2.54572 12.0547 4.38339 12.0547 6.5477C12.0547 7.62263 11.6336 8.5929 10.9527 9.30211L5.00774 15.3319L10.5821 21.0103C11.298 21.7526 11.7311 22.7265 11.7311 23.7906C11.7311 26.1119 9.6684 27.9947 7.11491 27.9947ZM24.2525 27.9772L13.8587 27.9742C13.8587 27.9742 15.0605 25.3744 15.0605 23.7677C15.0605 21.8085 14.4055 20.0551 13.3799 18.8977L9.82661 15.2729L13.4502 11.5278C14.5348 10.5088 15.2506 8.70599 15.2506 6.65537C15.2506 5.03064 14.8019 3.59118 14.0752 2.54572H16.595C18.7088 2.54572 20.4214 4.38339 20.4214 6.5477C20.4214 7.62263 20.0021 8.5929 19.323 9.30211L13.4881 15.2705L25.603 27.6253C25.2168 27.8672 24.7343 27.9772 24.2525 27.9772ZM26.788 24.1184L18.1049 15.2687L22.2398 11.0676C23.0825 10.0119 23.6191 8.42688 23.6191 6.65537C23.6191 5.02101 23.1619 3.54365 22.4323 2.49879L24.2808 2.55654C25.6673 2.55654 26.7952 3.69644 26.7952 5.10583L26.788 24.1184Z" fill="#00529C"/>
<path d="M48.8832 13.8593C49.0522 13.6903 49.2519 13.4725 49.4823 13.206C49.7121 12.9395 49.9299 12.6249 50.1356 12.2616C50.3413 11.8983 50.517 11.4935 50.6619 11.0453C50.8075 10.5978 50.8803 10.1196 50.8803 9.61127C50.8803 8.61935 50.7106 7.69359 50.372 6.83401C50.0327 5.97502 49.5124 5.22431 48.8104 4.58248C48.1084 3.94184 47.2314 3.43896 46.1781 3.07564C45.1254 2.71292 43.8965 2.53126 42.4931 2.53126H42.4546H38.4196H37.3693H33.2344V7.15943V23.1818V27.9465H43.4008C44.877 27.9465 46.1655 27.7468 47.2675 27.3474C48.3683 26.948 49.2826 26.3976 50.0087 25.6956C50.7347 24.9936 51.2731 24.1767 51.6244 23.245C51.9751 22.3132 52.1507 21.3147 52.1507 20.2493C52.1507 18.8213 51.8241 17.5509 51.1708 16.4368C50.517 15.324 49.7542 14.4644 48.8832 13.8593ZM44.388 7.1883C44.7302 7.31884 45.016 7.48847 45.2391 7.70201C45.8172 8.25663 46.1065 8.91951 46.1065 9.69067C46.1065 10.3903 45.9856 10.9683 45.745 11.4261C45.5038 11.8845 45.2626 12.2339 45.022 12.4746H37.9546V6.88814H42.3476C43.1711 6.88814 43.849 6.9898 44.388 7.1883ZM43.6547 16.873C44.9341 16.873 45.8822 17.2044 46.4993 17.8661C47.0798 18.5175 47.3721 19.2863 47.3721 20.176C47.3721 21.0927 47.0407 21.8753 46.3778 22.5261C45.7143 23.177 44.6244 23.503 43.1055 23.503H42.5382H37.9546V16.873H43.6547Z" fill="#00529C"/>
<path d="M69.3872 16.9999C70.1493 16.4796 70.7851 15.8744 71.2934 15.1845C71.8017 14.4945 72.1765 13.7324 72.4189 12.8974C72.6607 12.0619 72.7822 11.2089 72.7822 10.3373C72.7822 9.19983 72.594 8.15316 72.2192 7.19673C71.8432 6.24089 71.2808 5.418 70.5307 4.72805C69.78 4.03809 68.8422 3.49972 67.7167 3.11234C66.5913 2.72555 65.2902 2.53126 63.814 2.53126H63.6811H53.902H53.8105V27.9465H58.6222V18.5067H61.305L67.9405 27.9465H73.5805L66.7188 18.1801C67.7348 17.9142 68.6244 17.5208 69.3872 16.9999ZM63.8501 6.88814C64.1527 6.88814 64.4384 6.90799 64.7103 6.94228C65.5681 7.07161 66.2689 7.37779 66.809 7.86443C67.5441 8.52791 67.9116 9.34119 67.9116 10.3048C67.9116 10.7879 67.8328 11.2577 67.6764 11.7154C67.5194 12.1738 67.2728 12.5774 66.9353 12.9263C66.5973 13.2764 66.1636 13.5591 65.6336 13.7763C65.1031 13.9934 64.4643 14.1017 63.7172 14.1017H58.6222V6.88814H63.8501Z" fill="#00529C"/>
<path d="M75.2796 2.53125V2.53847C75.2309 2.53727 75.1834 2.53125 75.1347 2.53125H75.0938V2.53306V11.849V18.5242V27.9465H79.9998V2.53125H75.2796Z" fill="#00529C"/>
</svg>
