<svg width="24" height="25" viewBox="0 0 24 25" fill="none" xmlns="http://www.w3.org/2000/svg">
<path d="M4.25 13.3514C4.25 12.8114 4.25 12.4714 4.25 12.4714C4.25 12.4714 4.25 4.69141 5.36 3.60141C7.57 1.47141 16.43 1.47141 18.65 3.60141C19.76 4.69141 19.76 12.4714 19.76 12.4714C19.76 12.4714 19.76 12.8114 19.76 13.3514C19.76 15.4214 19.54 20.4814 18.66 21.3514C16.43 23.4714 7.57 23.4714 5.35 21.3414C4.47 20.4714 4.28 15.4714 4.25 13.3514Z" stroke="#A6A6A6" stroke-width="2" stroke-linecap="round" stroke-linejoin="round"/>
<path d="M19.75 13.3514C19.75 15.4214 19.53 20.4814 18.65 21.3514C16.43 23.4714 7.57 23.4714 5.35 21.3414C4.47 20.4814 4.28 15.4214 4.25 13.3414C7.38 11.8214 16.62 11.8214 19.75 13.3514Z" stroke="#A6A6A6" stroke-width="2" stroke-linecap="round" stroke-linejoin="round"/>
<path d="M15.6004 7.04138C15.6004 7.04138 15.6004 8.68138 15.0804 8.91138C13.0528 9.37141 10.948 9.37141 8.92039 8.91138C8.40039 8.68138 8.40039 7.04138 8.40039 7.04138C8.40039 7.04138 8.40039 5.40138 8.92039 5.17138C10.948 4.71135 13.0528 4.71135 15.0804 5.17138C15.6004 5.40138 15.6004 7.04138 15.6004 7.04138Z" stroke="#A6A6A6" stroke-width="2" stroke-linecap="round" stroke-linejoin="round"/>
</svg>
