<svg width="41" height="42" viewBox="0 0 41 42" fill="none" xmlns="http://www.w3.org/2000/svg">
<path d="M20.5007 0.55481C9.43278 0.55481 0.0839844 9.9036 0.0839844 20.9715C0.0839844 32.0394 9.43278 41.3881 20.5007 41.3881C31.5685 41.3881 40.9173 32.0394 40.9173 20.9715C40.9173 9.9036 31.5685 0.55481 20.5007 0.55481ZM20.5007 10.7631C24.0266 10.7631 26.6257 13.3601 26.6257 16.8881C26.6257 20.4161 24.0266 23.0131 20.5007 23.0131C16.9767 23.0131 14.3757 20.4161 14.3757 16.8881C14.3757 13.3601 16.9767 10.7631 20.5007 10.7631ZM10.0759 30.7143C11.9073 28.0193 14.9616 26.2226 18.459 26.2226H22.5423C26.0417 26.2226 29.094 28.0193 30.9254 30.7143C28.3162 33.5073 24.6146 35.2631 20.5007 35.2631C16.3867 35.2631 12.6852 33.5073 10.0759 30.7143Z" fill="#21272D"/>
</svg>
