<svg width="24" height="25" viewBox="0 0 24 25" fill="none" xmlns="http://www.w3.org/2000/svg">
<g clip-path="url(#clip0_286_9753)">
<path d="M10.5992 4.38143C10.6006 4.08905 10.5441 3.7993 10.4331 3.5288C10.3222 3.2583 10.1588 3.01239 9.95256 2.80518C9.74629 2.59798 9.50111 2.43356 9.23111 2.32137C8.96112 2.20918 8.67162 2.15143 8.37924 2.15143H3.91924C3.62686 2.15143 3.33736 2.20918 3.06737 2.32137C2.79737 2.43356 2.5522 2.59798 2.34592 2.80518C2.13964 3.01239 1.97633 3.2583 1.86535 3.5288C1.75437 3.7993 1.69792 4.08905 1.69924 4.38143V9.01143C1.69792 9.3038 1.75437 9.59356 1.86535 9.86406C1.97633 10.1346 2.13964 10.3805 2.34592 10.5877C2.5522 10.7949 2.79737 10.9593 3.06737 11.0715C3.33736 11.1837 3.62686 11.2414 3.91924 11.2414H8.37924C8.67162 11.2414 8.96112 11.1837 9.23111 11.0715C9.50111 10.9593 9.74629 10.7949 9.95256 10.5877C10.1588 10.3805 10.3222 10.1346 10.4331 9.86406C10.5441 9.59356 10.6006 9.3038 10.5992 9.01143V4.38143Z" stroke="#A6A6A6" stroke-width="2" stroke-linecap="round" stroke-linejoin="round"/>
<path d="M7.99961 17.4714C7.99961 17.2327 7.90479 17.0038 7.73601 16.835C7.56722 16.6662 7.3383 16.5714 7.09961 16.5714H5.24961C5.01091 16.5714 4.782 16.6662 4.61321 16.835C4.44443 17.0038 4.34961 17.2327 4.34961 17.4714V22.0714C4.34961 22.3101 4.44443 22.539 4.61321 22.7078C4.782 22.8766 5.01091 22.9714 5.24961 22.9714H7.04961C7.2883 22.9714 7.51722 22.8766 7.68601 22.7078C7.85479 22.539 7.94961 22.3101 7.94961 22.0714L7.99961 17.4714Z" stroke="#A6A6A6" stroke-width="2" stroke-linecap="round" stroke-linejoin="round"/>
<path d="M6.15039 16.5815V11.2415" stroke="#A6A6A6" stroke-width="2" stroke-linecap="round" stroke-linejoin="round"/>
<path d="M4.51953 5.01141V8.39141" stroke="#A6A6A6" stroke-width="2" stroke-linecap="round" stroke-linejoin="round"/>
<path d="M7.7793 5.01141V8.39141" stroke="#A6A6A6" stroke-width="2" stroke-linecap="round" stroke-linejoin="round"/>
<path d="M22.2991 6.79144C22.3287 6.14067 22.2262 5.49063 21.9976 4.8806C21.769 4.27058 21.4191 3.71322 20.9691 3.2422C20.519 2.77119 19.9782 2.39629 19.3792 2.14015C18.7802 1.88401 18.1355 1.75195 17.4841 1.75195C16.8326 1.75195 16.1879 1.88401 15.5889 2.14015C14.99 2.39629 14.4491 2.77119 13.9991 3.2422C13.549 3.71322 13.1992 4.27058 12.9706 4.8806C12.742 5.49063 12.6394 6.14067 12.6691 6.79144V6.98144C12.7255 8.2205 13.2575 9.39009 14.1543 10.2469C15.0511 11.1038 16.2437 11.582 17.4841 11.582C18.7244 11.582 19.917 11.1038 20.8138 10.2469C21.7106 9.39009 22.2426 8.2205 22.2991 6.98144V6.79144Z" stroke="#A6A6A6" stroke-width="2" stroke-linecap="round" stroke-linejoin="round"/>
<path d="M19.2895 17.6714C19.2895 17.4327 19.1946 17.2038 19.0258 17.035C18.8571 16.8662 18.6281 16.7714 18.3895 16.7714H16.5895C16.3508 16.7714 16.1218 16.8662 15.9531 17.035C15.7843 17.2038 15.6895 17.4327 15.6895 17.6714V22.0714C15.6895 22.3101 15.7843 22.539 15.9531 22.7078C16.1218 22.8766 16.3508 22.9714 16.5895 22.9714H18.3895C18.6281 22.9714 18.8571 22.8766 19.0258 22.7078C19.1946 22.539 19.2895 22.3101 19.2895 22.0714V17.6714Z" stroke="#A6A6A6" stroke-width="2" stroke-linecap="round" stroke-linejoin="round"/>
<path d="M17.4902 16.7714V11.7714" stroke="#A6A6A6" stroke-width="2" stroke-linecap="round" stroke-linejoin="round"/>
</g>
<defs>
<clipPath id="clip0_286_9753">
<rect width="24" height="24" fill="white" transform="translate(0 0.471436)"/>
</clipPath>
</defs>
</svg>
