<svg width="24" height="25" viewBox="0 0 24 25" fill="none" xmlns="http://www.w3.org/2000/svg">
<g clip-path="url(#clip0_286_9760)">
<path d="M10.5104 11.9714V5.65144C10.5104 4.67544 10.1227 3.73942 9.43254 3.04928C8.74241 2.35915 7.80639 1.97144 6.83039 1.97144C5.85439 1.97144 4.91837 2.35915 4.22824 3.04928C3.5381 3.73942 3.15039 4.67544 3.15039 5.65144V11.9714C3.15039 10.2914 4.52039 9.31144 6.20039 9.31144H7.46039C9.14039 9.31144 10.5104 10.2914 10.5104 11.9714Z" stroke="#A6A6A6" stroke-width="2" stroke-linecap="round" stroke-linejoin="round"/>
<path d="M20.8502 16.6215V10.2915C20.8502 9.31545 20.4625 8.37943 19.7724 7.6893C19.0823 6.99916 18.1462 6.61145 17.1702 6.61145C16.1942 6.61145 15.2582 6.99916 14.5681 7.6893C13.8779 8.37943 13.4902 9.31545 13.4902 10.2915V16.6215C13.4902 14.9315 14.8602 13.9514 16.4902 13.9514H17.8002C19.4802 13.9514 20.8502 14.9315 20.8502 16.6215Z" stroke="#A6A6A6" stroke-width="2" stroke-linecap="round" stroke-linejoin="round"/>
<path d="M3.15039 11.9715C3.15039 10.2915 4.52039 9.31146 6.20039 9.31146H7.46039C9.14039 9.31146 10.5104 10.3115 10.5104 11.9715V14.6515C10.5104 15.6275 10.1227 16.5635 9.43254 17.2536C8.74241 17.9437 7.80639 18.3315 6.83039 18.3315C5.85439 18.3315 4.91837 17.9437 4.22824 17.2536C3.5381 16.5635 3.15039 15.6275 3.15039 14.6515V11.9715Z" stroke="#A6A6A6" stroke-width="2" stroke-linecap="round" stroke-linejoin="round"/>
<path d="M13.4902 16.6214C13.4902 14.9314 14.8602 13.9514 16.4902 13.9514H17.8002C19.4802 13.9514 20.8502 14.9514 20.8502 16.6214V19.2914C20.8502 20.2674 20.4625 21.2034 19.7724 21.8936C19.0823 22.5837 18.1462 22.9714 17.1702 22.9714C16.1942 22.9714 15.2582 22.5837 14.5681 21.8936C13.8779 21.2034 13.4902 20.2674 13.4902 19.2914V16.6214Z" stroke="#A6A6A6" stroke-width="2" stroke-linecap="round" stroke-linejoin="round"/>
<path d="M17.1699 18.6514V13.9514" stroke="#A6A6A6" stroke-width="2" stroke-linecap="round" stroke-linejoin="round"/>
<path d="M6.83008 13.9515V9.31146" stroke="#A6A6A6" stroke-width="2" stroke-linecap="round" stroke-linejoin="round"/>
</g>
<defs>
<clipPath id="clip0_286_9760">
<rect width="24" height="24" fill="white" transform="translate(0 0.471436)"/>
</clipPath>
</defs>
</svg>
