<svg width="83" height="26" viewBox="0 0 83 26" fill="none" xmlns="http://www.w3.org/2000/svg">
<path d="M42.5695 8.47411C42.5226 11.9486 45.8692 13.8876 48.3903 15.0403C50.9806 16.2232 51.8506 16.9817 51.8408 18.0393C51.821 19.6583 49.7744 20.3727 47.8589 20.4005C44.5172 20.4492 42.5745 19.5539 41.0297 18.8766L39.826 24.1626C41.3757 24.8329 44.2453 25.4174 47.2212 25.4429C54.2061 25.4429 58.7763 22.2073 58.801 17.1904C58.8282 10.8237 49.4161 10.4711 49.4803 7.62521C49.5026 6.76239 50.38 5.84159 52.303 5.60733C53.2546 5.48904 55.8819 5.39858 58.8603 6.68585L60.0294 1.57157C58.4278 1.02419 56.3689 0.5 53.8057 0.5C47.2311 0.5 42.6066 3.77964 42.5695 8.47411ZM71.2631 0.940689C69.9877 0.940689 68.9126 1.63883 68.4331 2.71039L58.4549 25.0671H65.4349L66.824 21.4651L75.3537 21.4651L76.1595 25.0671H82.3115L76.943 0.940689L71.2631 0.940689ZM72.2394 7.45821L74.2538 16.5178H68.7371L72.2394 7.45821ZM34.1065 0.940689L28.6046 25.0671H35.2559L40.7553 0.940689H34.1065ZM24.2668 0.940689L17.3437 17.3621L14.5433 3.39926C14.2146 1.84062 12.9169 0.940689 11.476 0.940689H0.158187L0 1.64115C2.32337 2.11431 4.96311 2.87739 6.56228 3.69382C7.54106 4.19249 7.82036 4.62854 8.14167 5.81376L13.4459 25.0671L20.4753 25.0671L31.2518 0.940689H24.2668Z" fill="#25459A"/>
</svg>
