<svg width="24" height="25" viewBox="0 0 24 25" fill="none" xmlns="http://www.w3.org/2000/svg">
<path d="M4.99986 10.0014C4.64276 10.293 4.19589 10.4523 3.73486 10.4523C3.27382 10.4523 2.82695 10.293 2.46986 10.0014L2.21986 9.80143C1.99512 9.61372 1.81435 9.37896 1.6903 9.11372C1.56625 8.84848 1.50195 8.55924 1.50195 8.26643C1.50195 7.97362 1.56625 7.68437 1.6903 7.41914C1.81435 7.1539 1.99512 6.91913 2.21986 6.73143C4.97436 4.4768 8.44089 3.27521 11.9999 3.34143C15.572 3.27369 19.0496 4.49088 21.7999 6.77143C22.0211 6.95918 22.1989 7.19283 22.3208 7.45618C22.4427 7.71952 22.5059 8.00623 22.5059 8.29643C22.5059 8.58662 22.4427 8.87334 22.3208 9.13668C22.1989 9.40002 22.0211 9.63368 21.7999 9.82143C21.7199 9.90143 21.6299 9.96143 21.5499 10.0314C21.1928 10.323 20.7459 10.4823 20.2849 10.4823C19.8238 10.4823 19.377 10.323 19.0199 10.0314C17.0416 8.4359 14.5605 7.59586 12.0199 7.66143C9.47616 7.58261 6.98752 8.41215 4.99986 10.0014Z" stroke="#A6A6A6" stroke-width="2" stroke-linecap="round" stroke-linejoin="round"/>
<path d="M9.75923 15.0114C9.42381 15.2074 9.03682 15.2971 8.64938 15.2685C8.26194 15.2399 7.89228 15.0945 7.58923 14.8514C7.34624 14.6469 7.15543 14.3875 7.0326 14.0947C6.90977 13.8018 6.85845 13.4839 6.88288 13.1673C6.90731 12.8506 7.0068 12.5444 7.1731 12.2738C7.3394 12.0033 7.56775 11.7762 7.83923 11.6114C9.11153 10.9059 10.5444 10.5407 11.9992 10.5514C13.4575 10.5386 14.8941 10.9038 16.1692 11.6114C16.4401 11.7771 16.6676 12.0048 16.8329 12.2758C16.9983 12.5468 17.0968 12.8533 17.1202 13.1699C17.1437 13.4865 17.0914 13.8041 16.9678 14.0965C16.8442 14.3889 16.6527 14.6477 16.4092 14.8514L16.2892 14.9514C16.0122 15.1821 15.6688 15.3182 15.3089 15.3398C14.9491 15.3613 14.5918 15.2673 14.2892 15.0714C13.5929 14.6711 12.8024 14.4639 11.9992 14.4714C11.2188 14.4585 10.448 14.6443 9.75923 15.0114Z" stroke="#A6A6A6" stroke-width="2" stroke-linecap="round" stroke-linejoin="round"/>
<path d="M11.9992 21.6014C13.1314 21.6014 14.0492 20.6836 14.0492 19.5514C14.0492 18.4192 13.1314 17.5014 11.9992 17.5014C10.867 17.5014 9.94922 18.4192 9.94922 19.5514C9.94922 20.6836 10.867 21.6014 11.9992 21.6014Z" stroke="#A6A6A6" stroke-width="2" stroke-linecap="round" stroke-linejoin="round"/>
</svg>
