<svg width="29" height="31" viewBox="0 0 29 31" fill="none" xmlns="http://www.w3.org/2000/svg">
<path d="M28.1445 14.5464L15.0945 1.16348C14.5725 0.628163 13.8475 0.301025 13.05 0.301025H2.9C1.305 0.301025 0 1.63932 0 3.27501V13.6839C0 14.5018 0.319 15.2453 0.8555 15.7955L13.9055 29.1784C14.4275 29.7137 15.1525 30.0408 15.95 30.0408C16.7475 30.0408 17.4725 29.7137 17.9945 29.1635L28.1445 18.7546C28.681 18.2193 29 17.4758 29 16.6579C29 15.8401 28.6665 15.0817 28.1445 14.5464ZM5.075 7.73597C3.8715 7.73597 2.9 6.73969 2.9 5.50549C2.9 4.27129 3.8715 3.27501 5.075 3.27501C6.2785 3.27501 7.25 4.27129 7.25 5.50549C7.25 6.73969 6.2785 7.73597 5.075 7.73597Z" fill="#21272D"/>
</svg>
