<svg width="46" height="46" viewBox="0 0 46 46" fill="none" xmlns="http://www.w3.org/2000/svg">
<circle cx="23" cy="23" r="22.5" fill="white" stroke="#E9E9F2"/>
<path fill-rule="evenodd" clip-rule="evenodd" d="M22.999 13.919C24.2597 12.6494 25.8864 12.1972 27.4464 12.2198C31.1961 12.274 34.9805 15.3339 34.9805 19.7665C34.9805 24.0303 32.2534 27.5799 29.5561 29.9932C28.1914 31.2142 26.7916 32.1836 25.6549 32.8512C25.0869 33.1848 24.5749 33.4487 24.1571 33.6325C23.949 33.7241 23.7536 33.8004 23.5797 33.8556C23.4283 33.9036 23.215 33.9618 23.001 33.9618C22.787 33.9618 22.5737 33.9036 22.4223 33.8556C22.2484 33.8004 22.053 33.7241 21.8449 33.6325C21.4271 33.4487 20.9152 33.1848 20.3471 32.8512C19.2104 32.1836 17.8106 31.2142 16.4459 29.9932C13.7486 27.5799 11.0215 24.0303 11.0215 19.7665C11.0215 15.3444 14.7972 12.2197 18.5686 12.2197C20.0863 12.2197 21.7286 12.6519 22.999 13.919ZM27.4204 14.0165C25.9856 13.9957 24.6485 14.4828 23.7485 15.8326C23.5819 16.0826 23.3014 16.2327 23.001 16.2327C22.7006 16.2327 22.4201 16.0826 22.2535 15.8326C21.359 14.491 19.9975 14.0165 18.5686 14.0165C15.6913 14.0165 12.8184 16.4322 12.8184 19.7665C12.8184 23.2593 15.0777 26.358 17.644 28.6541C18.911 29.7876 20.2122 30.6882 21.2571 31.3018C21.7798 31.6088 22.2288 31.8383 22.5685 31.9878C22.7391 32.0628 22.8717 32.1131 22.9656 32.1428C22.979 32.1471 22.9908 32.1506 23.001 32.1536C23.0113 32.1506 23.023 32.1471 23.0364 32.1428C23.1303 32.1131 23.2629 32.0628 23.4335 31.9878C23.7732 31.8383 24.2222 31.6088 24.7449 31.3018C25.7898 30.6882 27.091 29.7876 28.358 28.6541C30.9243 26.358 33.1836 23.2593 33.1836 19.7665C33.1836 16.4427 30.3195 14.0584 27.4204 14.0165Z" fill="#040509"/>
</svg>
