<svg width="36" height="32" viewBox="0 0 36 32" fill="none" xmlns="http://www.w3.org/2000/svg">
<path d="M30.3751 2.00035C29.48 2.00035 28.6216 2.31637 27.9886 2.8789C27.3557 3.44144 27.0002 4.20439 27.0002 4.99993C27.0002 5.79547 27.3557 6.55842 27.9886 7.12095C28.6216 7.68348 29.48 7.99951 30.3751 7.99951C31.2702 7.99951 32.1286 7.68348 32.7615 7.12095C33.3945 6.55842 33.75 5.79547 33.75 4.99993C33.75 4.20439 33.3945 3.44144 32.7615 2.8789C32.1286 2.31637 31.2702 2.00035 30.3751 2.00035ZM24.7502 4.99993C24.75 3.82696 25.2139 2.69128 26.0607 1.7916C26.9075 0.891916 28.0833 0.285515 29.3823 0.0784913C30.6814 -0.128532 32.0209 0.077004 33.1667 0.659141C34.3124 1.24128 35.1914 2.16294 35.6498 3.26289C36.1082 4.36283 36.1168 5.57101 35.6742 6.67604C35.2316 7.78107 34.3658 8.71259 33.2285 9.30761C32.0912 9.90264 30.7546 10.1233 29.4527 9.93094C28.1508 9.7386 26.9665 9.14552 26.1069 8.25547L10.9917 14.4946C11.3392 15.4733 11.3392 16.5234 10.9917 17.5022L26.1069 23.7413C27.0155 22.8021 28.2841 22.1961 29.6668 22.0408C31.0495 21.8856 32.4478 22.192 33.5907 22.9008C34.7336 23.6096 35.5398 24.6703 35.853 25.8773C36.1662 27.0842 35.9641 28.3516 35.2858 29.4337C34.6076 30.5157 33.5015 31.3355 32.182 31.7341C30.8625 32.1327 29.4234 32.0817 28.1438 31.591C26.8641 31.1004 25.835 30.2049 25.2558 29.0783C24.6766 27.9517 24.5886 26.674 25.0089 25.4931L9.89368 19.2539C9.14542 20.029 8.14805 20.5817 7.03573 20.8379C5.92341 21.094 4.74951 21.0413 3.67195 20.6867C2.59438 20.3321 1.66484 19.6927 1.00837 18.8546C0.351904 18.0164 0 17.0196 0 15.9984C0 14.9771 0.351904 13.9804 1.00837 13.1422C1.66484 12.304 2.59438 11.6647 3.67195 11.3101C4.74951 10.9555 5.92341 10.9027 7.03573 11.1589C8.14805 11.415 9.14542 11.9678 9.89368 12.7428L25.0089 6.50372C24.8369 6.01712 24.7496 5.50999 24.7502 4.99993ZM5.6255 12.9988C4.73041 12.9988 3.87198 13.3148 3.23906 13.8774C2.60613 14.4399 2.25056 15.2028 2.25056 15.9984C2.25056 16.7939 2.60613 17.5569 3.23906 18.1194C3.87198 18.6819 4.73041 18.998 5.6255 18.998C6.52059 18.998 7.37902 18.6819 8.01195 18.1194C8.64487 17.5569 9.00045 16.7939 9.00045 15.9984C9.00045 15.2028 8.64487 14.4399 8.01195 13.8774C7.37902 13.3148 6.52059 12.9988 5.6255 12.9988ZM30.3751 23.9973C29.48 23.9973 28.6216 24.3133 27.9886 24.8758C27.3557 25.4384 27.0002 26.2013 27.0002 26.9968C27.0002 27.7924 27.3557 28.5553 27.9886 29.1179C28.6216 29.6804 29.48 29.9964 30.3751 29.9964C31.2702 29.9964 32.1286 29.6804 32.7615 29.1179C33.3945 28.5553 33.75 27.7924 33.75 26.9968C33.75 26.2013 33.3945 25.4384 32.7615 24.8758C32.1286 24.3133 31.2702 23.9973 30.3751 23.9973Z" fill="#21272D"/>
</svg>
