<svg width="11" height="14" viewBox="0 0 11 14" fill="none" xmlns="http://www.w3.org/2000/svg">
<path d="M7.52632 0H1.15789C0.521053 0 0 0.572727 0 1.27273V9.54545C0 9.89545 0.260526 10.1818 0.578947 10.1818C0.897368 10.1818 1.15789 9.89545 1.15789 9.54545V1.90909C1.15789 1.55909 1.41842 1.27273 1.73684 1.27273H7.52632C7.84474 1.27273 8.10526 0.986364 8.10526 0.636364C8.10526 0.286364 7.84474 0 7.52632 0ZM9.8421 2.54545H3.47368C2.83684 2.54545 2.31579 3.11818 2.31579 3.81818V12.7273C2.31579 13.4273 2.83684 14 3.47368 14H9.8421C10.4789 14 11 13.4273 11 12.7273V3.81818C11 3.11818 10.4789 2.54545 9.8421 2.54545ZM9.26316 12.7273H4.05263C3.73421 12.7273 3.47368 12.4409 3.47368 12.0909V4.45455C3.47368 4.10455 3.73421 3.81818 4.05263 3.81818H9.26316C9.58158 3.81818 9.8421 4.10455 9.8421 4.45455V12.0909C9.8421 12.4409 9.58158 12.7273 9.26316 12.7273Z" fill="#1B4A80"/>
</svg>
