<svg width="99" height="100" viewBox="0 0 99 100" fill="none" xmlns="http://www.w3.org/2000/svg">
<path d="M49.5002 99.451C56.2483 99.451 62.6021 98.1572 68.5623 95.5703C74.5218 93.0154 79.7568 89.4658 84.2659 84.9227C88.8065 80.3797 92.3697 75.1428 94.9554 69.2116C97.5411 63.249 98.8343 56.8761 98.8343 50.0932C98.8343 43.3418 97.5411 37.0005 94.9554 31.0694C92.3697 25.1067 88.8065 19.8539 84.2659 15.3109C79.7568 10.7678 74.5064 7.2186 68.5148 4.66322C62.5552 2.07621 56.201 0.782715 49.4529 0.782715C42.7047 0.782715 36.3507 2.07621 30.3909 4.66322C24.431 7.2186 19.1807 10.7678 14.6399 15.3109C10.1306 19.8539 6.58309 25.1067 3.99734 31.0694C1.44312 37.0005 0.166016 43.3418 0.166016 50.0932C0.166016 56.8761 1.44312 63.249 3.99734 69.2116C6.58309 75.1428 10.1464 80.3797 14.6872 84.9227C19.228 89.4658 24.4783 93.0154 30.4382 95.5703C36.398 98.1572 42.752 99.451 49.5002 99.451ZM44.2498 73.5654C43.2723 73.5654 42.3894 73.36 41.601 72.9499C40.8127 72.5084 40.0717 71.8461 39.3779 70.9624L27.9786 57.239C27.5371 56.6395 27.1902 56.0559 26.9379 55.488C26.7172 54.8886 26.6068 54.2734 26.6068 53.6424C26.6068 52.3174 27.0641 51.1974 27.9786 50.2825C28.893 49.336 30.0125 48.8628 31.3369 48.8628C32.1252 48.8628 32.8347 49.0363 33.4654 49.3833C34.0961 49.6988 34.7268 50.2509 35.3574 51.0397L44.1079 62.0187L63.17 31.5426C64.3053 29.7443 65.7083 28.8452 67.3795 28.8452C68.6412 28.8452 69.7605 29.2554 70.7379 30.0756C71.7468 30.8959 72.2518 31.9685 72.2518 33.2936C72.2518 33.893 72.1254 34.4924 71.8732 35.0918C71.6524 35.6913 71.3688 36.2592 71.0216 36.7955L48.9326 70.9624C48.365 71.7826 47.6712 72.4295 46.8514 72.9031C46.063 73.3446 45.1958 73.5654 44.2498 73.5654Z" fill="#45FF8F"/>
</svg>
